<?xml version="1.0" standalone="no"?>
<!DOCTYPE svg PUBLIC "-//W3C//DTD SVG 20010904//EN"
 "http://www.w3.org/TR/2001/REC-SVG-20010904/DTD/svg10.dtd">
<svg version="1.0" xmlns="http://www.w3.org/2000/svg"
 width="794.000000pt" height="199.000000pt" viewBox="0 0 794.000000 199.000000"
 preserveAspectRatio="xMidYMid meet">

<g transform="translate(0.000000,199.000000) scale(0.100000,-0.100000)"
fill="#000000" stroke="none">
<path d="M4277 1183 c-4 -3 -7 -87 -7 -185 l0 -178 325 0 325 0 -2 183 -3 182
-72 3 -72 3 -3 -28 -3 -28 -167 -3 -168 -2 0 24 c0 13 -7 27 -16 30 -21 8
-129 8 -137 -1z m493 -208 l0 -25 -170 0 -170 0 0 25 0 25 170 0 170 0 0 -25z"/>
<path d="M5064 1177 c-3 -8 -4 -41 -2 -73 l3 -59 73 -3 73 -3 -7 -175 -7 -175
74 3 74 3 8 85 c4 47 6 157 5 245 l-3 160 -143 3 c-114 2 -143 0 -148 -11z"/>
<path d="M5404 1177 c-3 -8 -4 -41 -2 -73 l3 -59 83 -3 83 -3 -7 -175 -7 -175
74 3 74 3 8 85 c4 47 6 157 5 245 l-3 160 -153 3 c-123 2 -153 0 -158 -11z"/>
<path d="M5887 1183 c-4 -3 -7 -69 -7 -145 l0 -138 320 0 321 0 -3 143 -3 142
-68 3 c-62 3 -69 1 -74 -18 -5 -19 -12 -20 -173 -20 -159 0 -168 1 -173 20 -4
17 -14 20 -69 20 -36 0 -68 -3 -71 -7z m483 -158 c0 -13 -26 -15 -170 -15
-144 0 -170 2 -170 15 0 13 26 15 170 15 144 0 170 -2 170 -15z"/>
<path d="M6940 1160 c0 -85 -104 -222 -224 -295 -36 -22 -66 -43 -66 -46 0 -3
18 -31 41 -62 l40 -57 42 21 c68 35 124 76 181 135 l53 54 74 -49 c41 -26 97
-72 126 -100 28 -28 54 -51 57 -51 7 0 77 76 90 97 12 22 -88 119 -190 185
-62 40 -82 57 -78 70 3 9 9 40 13 68 l8 50 -83 0 c-77 0 -84 -2 -84 -20z"/>
<path d="M572 833 l3 -328 180 -3 c195 -3 236 3 285 44 81 69 87 193 12 276
-35 38 -35 39 -15 53 11 8 28 34 38 57 22 57 13 113 -26 161 -46 56 -98 67
-306 67 l-173 0 2 -327z m346 175 c7 -7 12 -24 12 -39 0 -44 -32 -59 -122 -59
l-78 0 0 55 0 55 88 0 c55 0 92 -4 100 -12z m11 -252 c25 -23 27 -63 5 -94
-14 -20 -23 -22 -110 -22 l-94 0 0 71 0 71 89 -4 c70 -2 93 -7 110 -22z"/>
<path d="M1680 830 l0 -330 75 0 75 0 0 73 c0 59 4 77 18 90 10 10 21 17 24
17 4 0 32 -40 64 -90 l58 -90 89 0 c68 0 86 3 81 13 -4 6 -47 72 -96 144 -48
73 -88 137 -88 142 0 5 36 48 80 94 44 47 80 87 80 91 0 3 -37 6 -83 6 l-83 0
-64 -65 c-35 -36 -68 -65 -72 -65 -4 0 -8 68 -8 150 l0 150 -75 0 -75 0 0
-330z"/>
<path d="M2212 833 l3 -328 78 -3 77 -3 0 79 c0 75 9 102 35 102 5 0 36 -41
67 -90 l57 -90 86 0 c47 0 85 2 85 4 0 3 -43 71 -95 151 l-96 146 86 92 85 92
-88 3 -87 3 -67 -73 -67 -73 -1 158 0 157 -80 0 -80 0 2 -327z"/>
<path d="M2902 996 c-64 -21 -107 -59 -138 -121 -35 -72 -38 -186 -7 -255 25
-58 90 -116 145 -131 94 -25 214 6 273 71 l20 22 -49 43 -49 42 -35 -23 c-45
-31 -109 -32 -146 -3 -14 11 -26 27 -26 35 0 11 28 14 160 14 l160 0 0 59 c0
104 -46 193 -120 231 -52 26 -134 33 -188 16z m136 -142 c12 -8 22 -22 22 -30
0 -11 -17 -14 -80 -14 -63 0 -80 3 -80 14 0 23 41 46 80 46 20 0 46 -7 58 -16z"/>
<path d="M1167 983 c-11 -11 -8 -308 4 -363 24 -110 114 -159 225 -121 30 10
57 14 60 10 3 -5 39 -9 80 -9 l74 0 0 245 0 246 -77 -3 -78 -3 -3 -161 c-3
-172 -4 -176 -55 -188 -21 -5 -33 -1 -52 18 -24 25 -25 28 -25 181 l0 155 -73
0 c-41 0 -77 -3 -80 -7z"/>
<path d="M3272 798 c3 -217 12 -250 74 -289 44 -27 126 -29 174 -4 23 12 35
14 38 6 2 -7 33 -11 83 -11 l79 0 -2 243 -3 242 -77 3 -78 3 0 -166 0 -166
-35 -14 c-38 -17 -78 -6 -91 24 -4 9 -9 85 -12 169 l-4 152 -75 0 -75 0 4
-192z"/>
<path d="M5832 803 l3 -58 138 -3 c129 -2 137 -4 137 -22 0 -19 -7 -20 -125
-20 l-125 0 0 -60 0 -60 254 0 255 0 3 -52 3 -53 78 -3 77 -3 0 116 0 115
-125 0 c-118 0 -125 1 -125 20 0 18 8 20 143 22 l142 3 3 58 3 57 -371 0 -371
0 3 -57z"/>
<path d="M4222 688 l3 -63 137 -3 137 -3 3 -72 3 -72 82 -3 82 -3 3 73 3 73
143 3 142 3 0 64 0 65 -370 0 -371 0 3 -62z"/>
<path d="M5030 550 l0 -70 368 2 367 3 3 68 3 67 -371 0 -370 0 0 -70z"/>
<path d="M6632 553 l3 -68 368 -3 367 -2 0 70 0 70 -370 0 -371 0 3 -67z"/>
</g>
</svg>
