<svg version="1.1" id="Layer_1" xmlns="http://www.w3.org/2000/svg" xmlns:xlink="http://www.w3.org/1999/xlink" x="0px" y="0px"
	 width="100%" viewBox="0 0 794 199" enable-background="new 0 0 794 199" xml:space="preserve">
<path fill="#FDFDFE" opacity="1.000000" stroke="none" 
	d="
M573.000000,200.000000 
	C382.000031,200.000000 191.500046,200.000000 1.000051,200.000000 
	C1.000034,133.666702 1.000034,67.333397 1.000017,1.000069 
	C265.666595,1.000046 530.333191,1.000046 794.999878,1.000023 
	C794.999878,67.333260 794.999878,133.666519 794.999939,199.999893 
	C721.166687,200.000000 647.333313,200.000000 573.000000,200.000000 
M312.037354,133.264008 
	C312.030792,132.553528 312.024231,131.843048 312.910614,130.936615 
	C315.846161,130.936615 318.781708,130.936615 322.623108,130.936615 
	C322.115479,125.716515 322.187653,121.192261 321.162201,116.932228 
	C318.427216,105.570290 310.030518,99.080620 298.912292,99.119812 
	C287.382019,99.160454 278.337738,105.537460 275.824249,116.703026 
	C274.580292,122.229233 274.384155,128.378159 275.395203,133.939697 
	C277.166992,143.685684 283.748688,149.691895 293.519501,151.619247 
	C304.513824,153.787933 314.572418,149.795517 319.880066,141.442215 
	C317.276215,138.971283 314.643341,136.472809 312.037354,133.264008 
M109.903366,100.575546 
	C109.358200,92.409157 104.993530,86.376846 97.201912,85.373840 
	C84.472870,83.735252 71.535645,83.713905 58.754070,83.013992 
	C58.754070,106.250877 58.754070,128.133530 58.754070,150.413864 
	C68.734459,150.413864 78.354698,150.458084 87.974022,150.383606 
	C90.459747,150.364365 92.965431,150.116913 95.422829,149.727463 
	C106.658607,147.946777 113.644249,138.757736 111.070801,127.829933 
	C109.900566,122.860725 106.489868,118.419136 104.516869,114.562065 
	C106.276695,110.285103 108.101143,105.851089 109.903366,100.575546 
M404.111572,28.314693 
	C401.683838,27.961929 399.180115,27.039248 396.840942,27.350958 
	C383.832672,29.084362 370.866119,31.129169 357.881744,33.043381 
	C349.851410,34.227245 347.583893,37.205368 348.916901,45.206818 
	C349.264679,47.294331 350.057312,49.307735 350.631989,51.307812 
	C349.614899,52.015850 348.611176,52.714558 347.556519,53.448746 
	C354.004211,59.972206 353.841034,62.775375 346.838318,66.876213 
	C347.024872,67.410812 347.446320,68.017052 347.381866,68.566277 
	C347.268219,69.534698 346.842926,70.464043 346.574585,71.417213 
	C344.363892,79.269875 346.913361,84.329407 354.405945,86.928787 
	C362.250885,89.650398 370.067566,92.461807 377.974518,94.990204 
	C379.896149,95.604691 382.242554,95.754440 384.190796,95.281807 
	C396.779175,92.227974 409.314697,88.955322 421.857635,85.716026 
	C423.376587,85.323746 424.836151,84.701477 426.323242,84.185799 
	C420.953796,81.873901 419.794556,78.180038 422.448059,73.938751 
	C423.891815,71.631081 425.425476,69.976509 425.492920,66.858643 
	C425.594910,62.144054 426.868652,57.454811 427.644470,52.754799 
	C427.200104,52.673840 426.755707,52.592876 426.311310,52.511917 
	C427.370514,51.869305 428.429718,51.226688 428.639557,51.099369 
	C426.999573,48.751041 424.299500,46.598225 424.289795,44.433346 
	C424.277924,41.779953 426.517181,39.116470 428.002960,35.995785 
	C420.597473,33.641926 412.728638,31.140779 404.111572,28.314693 
M492.999359,102.496979 
	C492.999359,95.584389 492.999359,88.671806 492.999359,81.634232 
	C487.541534,81.634232 482.801239,81.634232 477.948853,81.634232 
	C477.645172,83.479507 477.383484,85.069916 477.091339,86.845123 
	C466.009766,86.845123 455.091797,86.845123 444.036072,86.845123 
	C443.781891,85.019646 443.561218,83.434952 443.330841,81.780548 
	C438.185364,81.780548 433.322296,81.780548 428.528931,81.780548 
	C428.528931,94.119682 428.528931,106.026932 428.528931,118.147110 
	C450.081573,118.147110 471.308380,118.147110 492.999359,118.147110 
	C492.999359,113.082588 492.999359,108.288506 492.999359,102.496979 
M638.193176,144.457611 
	C638.193176,147.222076 638.193176,149.986526 638.193176,152.806671 
	C643.725891,152.806671 648.481079,152.806671 653.519775,152.806671 
	C653.519775,145.134918 653.519775,137.753708 653.519775,129.865799 
	C646.274109,129.865799 639.321899,129.916626 632.370972,129.842255 
	C629.337158,129.809814 629.338379,129.693359 629.616028,125.577965 
	C638.951538,125.577965 648.344055,125.577965 657.783325,125.577965 
	C657.783325,121.359756 657.783325,117.742516 657.783325,113.890045 
	C633.169556,113.890045 608.764221,113.890045 584.270752,113.890045 
	C584.270752,117.862267 584.270752,121.585320 584.270752,125.752876 
	C592.404663,125.752876 600.195435,125.671204 607.981140,125.832481 
	C609.293396,125.859665 610.583984,126.935463 611.884583,127.526779 
	C610.571106,128.306564 609.279114,129.714584 607.940613,129.760269 
	C601.189636,129.990692 594.426514,129.866135 587.450684,129.866135 
	C587.450684,134.289185 587.450684,138.043564 587.450684,142.418640 
	C589.458435,142.418640 591.238770,142.418655 593.019104,142.418655 
	C606.333252,142.418594 619.647705,142.380661 632.961304,142.465256 
	C634.667297,142.476089 636.369263,143.124146 638.193176,144.457611 
M237.815567,102.468155 
	C237.815567,96.359795 237.815567,90.251434 237.815567,83.989075 
	C232.421326,83.989075 227.531860,83.989075 222.734558,83.989075 
	C222.734558,106.228844 222.734558,128.113419 222.734558,150.148285 
	C227.835831,150.148285 232.581406,150.148285 237.181488,150.148285 
	C239.605576,144.153275 234.634842,136.764877 241.862427,131.464294 
	C245.415573,136.950546 248.745239,142.258881 252.279663,147.427185 
	C253.124405,148.662445 254.602173,150.197296 255.873672,150.279404 
	C260.940277,150.606522 266.040436,150.414200 272.070801,150.414200 
	C265.040680,139.768631 258.582153,129.988647 251.992462,120.009995 
	C257.761871,113.729492 263.285706,107.716324 269.585815,100.858139 
	C264.580200,100.858139 260.912201,101.151398 257.312195,100.782013 
	C253.056656,100.345360 250.090134,101.794899 247.464737,105.103333 
	C244.866974,108.376953 241.739944,111.230568 237.815536,115.348816 
	C237.815536,110.319122 237.815536,106.886101 237.815567,102.468155 
M215.540771,150.411362 
	C219.639801,150.001160 216.931015,148.027512 216.203018,146.902496 
	C211.406616,139.490326 206.725983,131.983948 201.523849,124.861595 
	C198.855255,121.207947 198.794571,118.873032 202.205200,115.706200 
	C206.848770,111.394547 210.940781,106.488869 216.168564,100.871658 
	C210.969406,100.871658 207.320099,101.124336 203.721741,100.804268 
	C199.707245,100.447182 196.783157,101.639366 194.228485,104.834267 
	C191.520248,108.221184 188.281830,111.184166 184.235687,115.420395 
	C184.235687,103.943413 184.235687,94.058296 184.235687,84.096817 
	C178.845703,84.096817 173.992920,84.096817 169.156555,84.096817 
	C169.156555,106.312859 169.156555,128.089523 169.156555,150.139069 
	C174.157227,150.139069 178.920517,150.139069 183.582153,150.139069 
	C186.133102,144.180939 180.884338,136.459244 188.416077,131.502991 
	C190.074188,134.059235 191.888458,136.121933 192.886902,138.523743 
	C197.010345,148.443024 204.068008,152.652405 215.540771,150.411362 
M357.065918,130.993774 
	C356.951080,135.621567 353.456848,136.205734 350.105377,136.378799 
	C346.605408,136.559540 344.502502,134.384033 344.044525,130.988647 
	C343.645935,128.033615 343.511780,125.027634 343.478149,122.041725 
	C343.400085,115.107971 343.453278,108.172722 343.453278,101.173889 
	C338.045380,101.173889 333.302948,101.173889 328.542755,101.173889 
	C328.338501,101.928093 328.104828,102.390930 328.103546,102.854424 
	C328.075134,113.005928 327.939667,123.159554 328.096222,133.308578 
	C328.329254,148.414948 339.529083,155.523239 353.444580,149.567093 
	C354.469513,149.128403 355.627350,148.427399 356.616211,148.573593 
	C361.726379,149.329010 366.801666,150.320709 372.343231,151.311172 
	C372.343231,133.669907 372.343231,117.472832 372.343231,101.274406 
	C367.131622,101.274406 362.255951,101.274406 357.068726,101.274406 
	C357.068726,111.150940 357.068726,120.616013 357.065918,130.993774 
M142.942627,135.754150 
	C136.159042,137.216537 133.597168,135.425735 133.014969,128.618866 
	C132.788528,125.971687 132.838516,123.297752 132.828903,120.635757 
	C132.805618,114.196022 132.821335,107.756149 132.821335,101.109077 
	C127.441734,101.109077 122.693840,101.109077 117.384109,101.109077 
	C117.384109,111.799507 117.288162,122.250366 117.406525,132.698807 
	C117.585533,148.500763 128.400620,155.450150 143.128632,149.386292 
	C144.060349,149.002686 145.200348,148.833664 146.198120,148.950836 
	C151.337723,149.554352 156.462509,150.283951 161.685699,150.982010 
	C161.685699,133.479004 161.685699,117.403603 161.685699,101.238777 
	C156.502945,101.238777 151.639542,101.238777 146.378845,101.238777 
	C146.378845,110.911514 146.529282,120.214119 146.258591,129.504440 
	C146.200821,131.487473 144.613220,133.425934 142.942627,135.754150 
M640.119202,81.370193 
	C637.290771,85.503036 633.119873,85.332687 628.778381,85.155830 
	C623.465332,84.939407 618.118958,85.367203 612.821472,85.007866 
	C609.525757,84.784325 604.972290,87.351486 603.384521,81.763809 
	C603.316101,81.522766 602.483948,81.393478 602.006409,81.390320 
	C597.738037,81.362053 593.469421,81.373840 589.027466,81.373840 
	C589.027466,91.191269 589.027466,100.423050 589.027466,109.819023 
	C610.516724,109.819023 631.726440,109.819023 653.165405,109.819023 
	C653.165405,100.313995 653.165405,91.098808 653.165405,81.351997 
	C648.909973,81.351997 644.958923,81.351997 640.119202,81.370193 
M703.483276,81.575729 
	C700.844727,81.575729 698.206177,81.575729 695.309509,81.575729 
	C693.288208,100.348450 679.783936,109.494621 665.300354,117.933441 
	C668.463623,122.292305 671.260559,126.146400 674.895691,131.155426 
	C684.392639,123.873878 693.393677,116.972626 703.409180,109.293495 
	C711.063721,115.395714 719.451843,122.082695 728.095337,128.973328 
	C731.094727,125.558823 734.349976,121.852974 738.571045,117.047699 
	C729.838013,110.496658 721.671387,104.034554 713.116333,98.135880 
	C710.138062,96.082413 709.070801,94.460854 710.239929,90.972626 
	C711.165405,88.211525 711.274292,85.176712 711.857117,81.575859 
	C708.965881,81.575859 706.678406,81.575859 703.483276,81.575729 
M423.704315,137.612900 
	C428.454010,137.877182 433.200897,138.236816 437.954254,138.377884 
	C442.359589,138.508621 446.771851,138.405746 451.587463,138.405746 
	C451.587463,143.783661 451.587463,148.226730 451.587463,152.844452 
	C457.305725,152.844452 462.576141,152.844452 468.474518,152.844452 
	C468.474518,148.045654 468.474518,143.475662 468.474518,138.235016 
	C478.458893,138.235016 487.832703,138.235016 497.205261,138.235016 
	C497.205261,133.416336 497.205261,129.293335 497.205261,125.010300 
	C472.570496,125.010300 448.186218,125.010300 423.471436,125.010300 
	C423.471436,129.156174 423.471436,132.963593 423.704315,137.612900 
M719.499084,151.895721 
	C725.623718,151.895721 731.748352,151.895721 738.161865,151.895721 
	C738.161865,146.971069 738.161865,142.571716 738.161865,137.959717 
	C713.541321,137.959717 689.146790,137.959717 664.743286,137.959717 
	C664.743286,142.695572 664.743286,147.110672 664.743286,151.895706 
	C682.889221,151.895706 700.694336,151.895706 719.499084,151.895721 
M503.781097,141.737595 
	C503.781097,144.997208 503.781097,148.256836 503.781097,151.587585 
	C528.783386,151.587585 553.022034,151.587585 577.537170,151.587585 
	C577.537170,146.894012 577.537170,142.507675 577.537170,137.657730 
	C553.636047,137.657730 530.007080,137.624130 506.379517,137.790329 
	C505.506775,137.796463 504.647797,139.753952 503.781097,141.737595 
M550.566406,95.714050 
	C552.854065,95.714050 555.141785,95.714050 557.262939,95.714050 
	C557.262939,107.721886 557.262939,119.105835 557.262939,130.309113 
	C562.295227,130.309113 567.029053,130.309113 572.431702,130.309113 
	C572.431702,113.873749 572.431702,97.835266 572.431702,81.732704 
	C562.005371,81.732704 551.617981,81.732704 541.295044,81.732704 
	C541.295044,86.523666 541.295044,90.919441 541.295044,95.714027 
	C544.307129,95.714027 546.943298,95.714027 550.566406,95.714050 
M527.441284,81.345932 
	C520.680176,81.345932 513.919067,81.345932 507.032898,81.345932 
	C507.032898,86.424484 507.032898,90.836571 507.032898,95.840271 
	C512.036865,95.840271 516.774231,95.840271 521.260742,95.840271 
	C521.260742,107.688583 521.260742,118.941536 521.260742,130.452393 
	C526.032837,130.452393 530.774536,130.452393 536.315186,130.452393 
	C536.315186,114.067619 536.315186,97.914055 536.315186,81.346039 
	C533.700378,81.346039 531.060059,81.346039 527.441284,81.345932 
z"/>
<path fill="#09096B" opacity="1.000000" stroke="none" 
	d="
M109.914474,100.996307 
	C108.101143,105.851089 106.276695,110.285103 104.516869,114.562065 
	C106.489868,118.419136 109.900566,122.860725 111.070801,127.829933 
	C113.644249,138.757736 106.658607,147.946777 95.422829,149.727463 
	C92.965431,150.116913 90.459747,150.364365 87.974022,150.383606 
	C78.354698,150.458084 68.734459,150.413864 58.754070,150.413864 
	C58.754070,128.133530 58.754070,106.250877 58.754070,83.013992 
	C71.535645,83.713905 84.472870,83.735252 97.201912,85.373840 
	C104.993530,86.376846 109.358200,92.409157 109.914474,100.996307 
M84.415703,136.395691 
	C85.910500,136.387497 87.407341,136.426727 88.899696,136.362122 
	C93.196594,136.176056 95.859543,134.019440 95.993988,129.639313 
	C96.118843,125.571487 93.873116,122.843063 89.813713,122.579063 
	C84.601570,122.240097 79.350708,122.496658 74.166344,122.496658 
	C74.166344,127.246132 74.166344,131.638153 74.166344,136.395844 
	C77.508331,136.395844 80.477135,136.395844 84.415703,136.395691 
M73.776497,104.348877 
	C74.591927,105.792908 75.290009,108.386017 76.242966,108.483330 
	C80.513664,108.919456 84.954353,109.171043 89.131348,108.397141 
	C91.109749,108.030579 93.899353,105.288063 94.005920,103.485123 
	C94.111107,101.705612 91.488243,98.385826 89.722626,98.135338 
	C84.587036,97.406738 79.281380,97.876915 73.776474,97.876915 
	C73.776474,100.114899 73.776474,101.756172 73.776497,104.348877 
z"/>
<path fill="#9ECF3B" opacity="1.000000" stroke="none" 
	d="
M404.485687,28.477163 
	C412.728638,31.140779 420.597473,33.641926 428.002960,35.995785 
	C426.517181,39.116470 424.277924,41.779953 424.289795,44.433346 
	C424.299500,46.598225 426.999573,48.751041 428.639557,51.099369 
	C428.429718,51.226688 427.370514,51.869305 426.311310,52.511917 
	C426.755707,52.592876 427.200104,52.673840 427.644470,52.754799 
	C426.868652,57.454811 425.594910,62.144054 425.492920,66.858643 
	C425.425476,69.976509 423.891815,71.631081 422.448059,73.938751 
	C419.794556,78.180038 420.953796,81.873901 426.323242,84.185799 
	C424.836151,84.701477 423.376587,85.323746 421.857635,85.716026 
	C409.314697,88.955322 396.779175,92.227974 384.190796,95.281807 
	C382.242554,95.754440 379.896149,95.604691 377.974518,94.990204 
	C370.067566,92.461807 362.250885,89.650398 354.405945,86.928787 
	C346.913361,84.329407 344.363892,79.269875 346.574585,71.417213 
	C346.842926,70.464043 347.268219,69.534698 347.381866,68.566277 
	C347.446320,68.017052 347.024872,67.410812 346.838318,66.876213 
	C353.841034,62.775375 354.004211,59.972206 347.556519,53.448746 
	C348.611176,52.714558 349.614899,52.015850 350.631989,51.307812 
	C350.057312,49.307735 349.264679,47.294331 348.916901,45.206818 
	C347.583893,37.205368 349.851410,34.227245 357.881744,33.043381 
	C370.866119,31.129169 383.832672,29.084362 396.840942,27.350958 
	C399.180115,27.039248 401.683838,27.961929 404.485687,28.477163 
M381.012390,46.614323 
	C372.869812,43.772606 364.744843,40.878101 356.565918,38.145161 
	C355.315247,37.727261 353.350311,37.475201 352.514496,38.144279 
	C349.595825,40.480740 351.200378,48.624844 354.803101,49.716721 
	C364.292816,52.592766 373.858215,55.219082 384.088318,58.143475 
	C382.888702,54.045010 386.384491,49.829491 381.012390,46.614323 
M392.008179,66.881912 
	C392.008179,69.266953 392.008179,71.651993 392.008179,74.560997 
	C394.581055,73.953659 396.184784,73.654404 397.741028,73.194397 
	C405.669769,70.850731 413.623566,68.580757 421.487061,66.033340 
	C424.303070,65.121078 425.623535,59.903179 424.413177,56.519756 
	C422.870636,52.207748 420.092316,54.754177 417.912933,55.449440 
	C410.508972,57.811409 403.147247,60.318039 395.846771,62.981647 
	C394.392883,63.512112 393.281067,64.980103 392.008179,66.881912 
M358.505676,72.902908 
	C355.672302,72.369400 352.838928,71.835892 350.005554,71.302391 
	C349.681824,73.848244 348.764221,76.513283 349.242828,78.898125 
	C349.562653,80.491692 351.636169,82.297485 353.330414,82.941666 
	C357.804932,84.642967 362.503906,85.751091 367.106689,87.118454 
	C371.610596,88.456436 376.105988,89.822906 380.946747,91.279694 
	C381.075623,89.401878 381.038635,88.238388 381.252075,87.122810 
	C382.199585,82.170456 380.387146,79.676056 375.262512,78.521088 
	C369.805969,77.291313 364.600250,74.948700 358.505676,72.902908 
M390.246277,68.341904 
	C390.880432,64.874733 388.892731,63.818493 385.919708,63.218082 
	C376.480927,61.311890 367.082153,59.208530 357.654266,57.247009 
	C356.286133,56.962372 354.843323,57.036572 353.338287,56.938404 
	C354.491882,65.385056 354.490417,65.390579 362.115417,67.426567 
	C364.199982,67.983177 366.300079,68.481483 368.386597,69.031166 
	C375.655060,70.946060 382.920715,72.871758 390.266663,74.814301 
	C390.266663,72.476036 390.266663,70.830894 390.246277,68.341904 
M391.588654,89.094650 
	C400.989105,86.624725 410.389587,84.154800 419.795563,81.683426 
	C419.795563,78.530464 419.795563,75.923302 419.795563,73.059204 
	C410.160339,75.156319 400.753113,77.086922 391.404968,79.270615 
	C381.633148,81.553268 383.214355,79.237534 383.049225,89.527557 
	C383.042114,89.969276 383.321198,90.415581 383.586914,91.225319 
	C386.034668,90.569435 388.411743,89.932495 391.588654,89.094650 
M400.047302,44.513172 
	C397.942993,44.999004 395.844910,45.513763 393.733337,45.965607 
	C385.127594,47.807095 385.122467,47.800255 385.772644,56.660297 
	C385.794678,56.960445 386.045105,57.243835 386.375061,57.911316 
	C398.114227,54.821686 409.927917,51.712437 421.855499,48.573208 
	C422.111908,45.644527 422.349060,42.935619 422.631409,39.710323 
	C415.084259,41.288040 407.967163,42.775852 400.047302,44.513172 
z"/>
<path fill="#0A0A6C" opacity="1.000000" stroke="none" 
	d="
M492.999359,102.995705 
	C492.999359,108.288506 492.999359,113.082588 492.999359,118.147110 
	C471.308380,118.147110 450.081573,118.147110 428.528931,118.147110 
	C428.528931,106.026932 428.528931,94.119682 428.528931,81.780548 
	C433.322296,81.780548 438.185364,81.780548 443.330841,81.780548 
	C443.561218,83.434952 443.781891,85.019646 444.036072,86.845123 
	C455.091797,86.845123 466.009766,86.845123 477.091339,86.845123 
	C477.383484,85.069916 477.645172,83.479507 477.948853,81.634232 
	C482.801239,81.634232 487.541534,81.634232 492.999359,81.634232 
	C492.999359,88.671806 492.999359,95.584389 492.999359,102.995705 
M473.177185,99.853546 
	C463.427948,99.853546 453.678741,99.853546 443.515381,99.853546 
	C443.721924,102.171127 443.859406,103.713623 443.972351,104.980835 
	C455.475067,104.980835 466.360901,104.980835 477.191315,104.980835 
	C478.026337,101.757256 478.018616,99.499092 473.177185,99.853546 
z"/>
<path fill="#08086B" opacity="1.000000" stroke="none" 
	d="
M638.133118,143.967316 
	C636.369263,143.124146 634.667297,142.476089 632.961304,142.465256 
	C619.647705,142.380661 606.333252,142.418594 593.019104,142.418655 
	C591.238770,142.418655 589.458435,142.418640 587.450684,142.418640 
	C587.450684,138.043564 587.450684,134.289185 587.450684,129.866135 
	C594.426514,129.866135 601.189636,129.990692 607.940613,129.760269 
	C609.279114,129.714584 610.571106,128.306564 611.884583,127.526772 
	C610.583984,126.935463 609.293396,125.859665 607.981140,125.832481 
	C600.195435,125.671204 592.404663,125.752876 584.270752,125.752876 
	C584.270752,121.585320 584.270752,117.862267 584.270752,113.890045 
	C608.764221,113.890045 633.169556,113.890045 657.783325,113.890045 
	C657.783325,117.742516 657.783325,121.359756 657.783325,125.577965 
	C648.344055,125.577965 638.951538,125.577965 629.616028,125.577965 
	C629.338379,129.693359 629.337158,129.809814 632.370972,129.842255 
	C639.321899,129.916626 646.274109,129.865799 653.519775,129.865799 
	C653.519775,137.753708 653.519775,145.134918 653.519775,152.806671 
	C648.481079,152.806671 643.725891,152.806671 638.193176,152.806671 
	C638.193176,149.986526 638.193176,147.222076 638.133118,143.967316 
z"/>
<path fill="#0B0B6C" opacity="1.000000" stroke="none" 
	d="
M237.815552,102.960617 
	C237.815536,106.886101 237.815536,110.319122 237.815536,115.348816 
	C241.739944,111.230568 244.866974,108.376953 247.464737,105.103333 
	C250.090134,101.794899 253.056656,100.345360 257.312195,100.782013 
	C260.912201,101.151398 264.580200,100.858139 269.585815,100.858139 
	C263.285706,107.716324 257.761871,113.729492 251.992462,120.009995 
	C258.582153,129.988647 265.040680,139.768631 272.070801,150.414200 
	C266.040436,150.414200 260.940277,150.606522 255.873672,150.279404 
	C254.602173,150.197296 253.124405,148.662445 252.279663,147.427185 
	C248.745239,142.258881 245.415573,136.950546 241.862427,131.464294 
	C234.634842,136.764877 239.605576,144.153275 237.181488,150.148285 
	C232.581406,150.148285 227.835831,150.148285 222.734558,150.148285 
	C222.734558,128.113419 222.734558,106.228844 222.734558,83.989075 
	C227.531860,83.989075 232.421326,83.989075 237.815567,83.989075 
	C237.815567,90.251434 237.815567,96.359795 237.815552,102.960617 
z"/>
<path fill="#07076A" opacity="1.000000" stroke="none" 
	d="
M215.133011,150.412308 
	C204.068008,152.652405 197.010345,148.443024 192.886902,138.523743 
	C191.888458,136.121933 190.074188,134.059235 188.416077,131.502991 
	C180.884338,136.459244 186.133102,144.180939 183.582153,150.139069 
	C178.920517,150.139069 174.157227,150.139069 169.156555,150.139069 
	C169.156555,128.089523 169.156555,106.312859 169.156555,84.096817 
	C173.992920,84.096817 178.845703,84.096817 184.235687,84.096817 
	C184.235687,94.058296 184.235687,103.943413 184.235687,115.420395 
	C188.281830,111.184166 191.520248,108.221184 194.228485,104.834267 
	C196.783157,101.639366 199.707245,100.447182 203.721741,100.804268 
	C207.320099,101.124336 210.969406,100.871658 216.168564,100.871658 
	C210.940781,106.488869 206.848770,111.394547 202.205200,115.706200 
	C198.794571,118.873032 198.855255,121.207947 201.523849,124.861595 
	C206.725983,131.983948 211.406616,139.490326 216.203018,146.902496 
	C216.931015,148.027512 219.639801,150.001160 215.133011,150.412308 
z"/>
<path fill="#0A0A6C" opacity="1.000000" stroke="none" 
	d="
M312.010437,133.974319 
	C314.643341,136.472809 317.276215,138.971283 319.880066,141.442215 
	C314.572418,149.795517 304.513824,153.787933 293.519501,151.619247 
	C283.748688,149.691895 277.166992,143.685684 275.395203,133.939697 
	C274.384155,128.378159 274.580292,122.229233 275.824249,116.703026 
	C278.337738,105.537460 287.382019,99.160454 298.912292,99.119812 
	C310.030518,99.080620 318.427216,105.570290 321.162201,116.932228 
	C322.187653,121.192261 322.115479,125.716515 322.623108,130.936615 
	C318.781708,130.936615 315.846161,130.936615 312.010864,130.900909 
	C304.073151,130.865189 297.035156,130.865189 288.711365,130.865189 
	C290.407776,133.373825 291.107117,135.077347 292.355713,136.128250 
	C296.025055,139.216583 302.784180,138.932159 307.345154,135.964737 
	C308.741028,135.056564 310.446655,134.624435 312.010437,133.974319 
M291.182800,118.776978 
	C296.438141,118.776978 301.693451,118.776978 307.513245,118.776978 
	C305.853943,114.244736 302.900604,112.779678 299.250977,112.770279 
	C295.512115,112.760643 291.958557,113.515945 291.182800,118.776978 
z"/>
<path fill="#0A0A6C" opacity="1.000000" stroke="none" 
	d="
M357.067322,130.537430 
	C357.068726,120.616013 357.068726,111.150940 357.068726,101.274406 
	C362.255951,101.274406 367.131622,101.274406 372.343231,101.274406 
	C372.343231,117.472832 372.343231,133.669907 372.343231,151.311172 
	C366.801666,150.320709 361.726379,149.329010 356.616211,148.573593 
	C355.627350,148.427399 354.469513,149.128403 353.444580,149.567093 
	C339.529083,155.523239 328.329254,148.414948 328.096222,133.308578 
	C327.939667,123.159554 328.075134,113.005928 328.103546,102.854424 
	C328.104828,102.390930 328.338501,101.928093 328.542755,101.173889 
	C333.302948,101.173889 338.045380,101.173889 343.453278,101.173889 
	C343.453278,108.172722 343.400085,115.107971 343.478149,122.041725 
	C343.511780,125.027634 343.645935,128.033615 344.044525,130.988647 
	C344.502502,134.384033 346.605408,136.559540 350.105377,136.378799 
	C353.456848,136.205734 356.951080,135.621567 357.067322,130.537430 
z"/>
<path fill="#0B0B6C" opacity="1.000000" stroke="none" 
	d="
M143.336517,135.569550 
	C144.613220,133.425934 146.200821,131.487473 146.258591,129.504440 
	C146.529282,120.214119 146.378845,110.911514 146.378845,101.238777 
	C151.639542,101.238777 156.502945,101.238777 161.685699,101.238777 
	C161.685699,117.403603 161.685699,133.479004 161.685699,150.982010 
	C156.462509,150.283951 151.337723,149.554352 146.198120,148.950836 
	C145.200348,148.833664 144.060349,149.002686 143.128632,149.386292 
	C128.400620,155.450150 117.585533,148.500763 117.406525,132.698807 
	C117.288162,122.250366 117.384109,111.799507 117.384109,101.109077 
	C122.693840,101.109077 127.441734,101.109077 132.821335,101.109077 
	C132.821335,107.756149 132.805618,114.196022 132.828903,120.635757 
	C132.838516,123.297752 132.788528,125.971687 133.014969,128.618866 
	C133.597168,135.425735 136.159042,137.216537 143.336517,135.569550 
z"/>
<path fill="#0B0B6D" opacity="1.000000" stroke="none" 
	d="
M640.563599,81.361099 
	C644.958923,81.351997 648.909973,81.351997 653.165405,81.351997 
	C653.165405,91.098808 653.165405,100.313995 653.165405,109.819023 
	C631.726440,109.819023 610.516724,109.819023 589.027466,109.819023 
	C589.027466,100.423050 589.027466,91.191269 589.027466,81.373840 
	C593.469421,81.373840 597.738037,81.362053 602.006409,81.390320 
	C602.483948,81.393478 603.316101,81.522766 603.384521,81.763809 
	C604.972290,87.351486 609.525757,84.784325 612.821472,85.007866 
	C618.118958,85.367203 623.465332,84.939407 628.778381,85.155830 
	C633.119873,85.332687 637.290771,85.503036 640.563599,81.361099 
M634.317566,95.696388 
	C625.327209,95.696480 616.336182,95.648064 607.347229,95.760689 
	C606.275452,95.774117 605.214783,96.665268 604.148926,97.149597 
	C605.052856,97.825203 605.948242,99.074295 606.862122,99.087982 
	C616.349731,99.230118 625.840942,99.215370 635.329468,99.103661 
	C636.228699,99.093071 637.116821,98.128143 638.010071,97.606293 
	C637.098267,96.971153 636.186462,96.336006 634.317566,95.696388 
z"/>
<path fill="#08086B" opacity="1.000000" stroke="none" 
	d="
M703.937134,81.575790 
	C706.678406,81.575859 708.965881,81.575859 711.857117,81.575859 
	C711.274292,85.176712 711.165405,88.211525 710.239929,90.972626 
	C709.070801,94.460854 710.138062,96.082413 713.116333,98.135880 
	C721.671387,104.034554 729.838013,110.496658 738.571045,117.047699 
	C734.349976,121.852974 731.094727,125.558823 728.095337,128.973328 
	C719.451843,122.082695 711.063721,115.395714 703.409180,109.293495 
	C693.393677,116.972626 684.392639,123.873878 674.895691,131.155426 
	C671.260559,126.146400 668.463623,122.292305 665.300354,117.933441 
	C679.783936,109.494621 693.288208,100.348450 695.309509,81.575729 
	C698.206177,81.575729 700.844727,81.575729 703.937134,81.575790 
z"/>
<path fill="#050569" opacity="1.000000" stroke="none" 
	d="
M423.587891,137.191956 
	C423.471436,132.963593 423.471436,129.156174 423.471436,125.010300 
	C448.186218,125.010300 472.570496,125.010300 497.205261,125.010300 
	C497.205261,129.293335 497.205261,133.416336 497.205261,138.235016 
	C487.832703,138.235016 478.458893,138.235016 468.474518,138.235016 
	C468.474518,143.475662 468.474518,148.045654 468.474518,152.844452 
	C462.576141,152.844452 457.305725,152.844452 451.587463,152.844452 
	C451.587463,148.226730 451.587463,143.783661 451.587463,138.405746 
	C446.771851,138.405746 442.359589,138.508621 437.954254,138.377884 
	C433.200897,138.236816 428.454010,137.877182 423.587891,137.191956 
z"/>
<path fill="#07076A" opacity="1.000000" stroke="none" 
	d="
M718.999268,151.895721 
	C700.694336,151.895706 682.889221,151.895706 664.743286,151.895706 
	C664.743286,147.110672 664.743286,142.695572 664.743286,137.959717 
	C689.146790,137.959717 713.541321,137.959717 738.161865,137.959717 
	C738.161865,142.571716 738.161865,146.971069 738.161865,151.895721 
	C731.748352,151.895721 725.623718,151.895721 718.999268,151.895721 
z"/>
<path fill="#07076A" opacity="1.000000" stroke="none" 
	d="
M503.781738,141.269836 
	C504.647797,139.753952 505.506775,137.796463 506.379517,137.790329 
	C530.007080,137.624130 553.636047,137.657730 577.537170,137.657730 
	C577.537170,142.507675 577.537170,146.894012 577.537170,151.587585 
	C553.022034,151.587585 528.783386,151.587585 503.781097,151.587585 
	C503.781097,148.256836 503.781097,144.997208 503.781738,141.269836 
z"/>
<path fill="#0C0C6D" opacity="1.000000" stroke="none" 
	d="
M550.072937,95.714035 
	C546.943298,95.714027 544.307129,95.714027 541.295044,95.714027 
	C541.295044,90.919441 541.295044,86.523666 541.295044,81.732704 
	C551.617981,81.732704 562.005371,81.732704 572.431702,81.732704 
	C572.431702,97.835266 572.431702,113.873749 572.431702,130.309113 
	C567.029053,130.309113 562.295227,130.309113 557.262939,130.309113 
	C557.262939,119.105835 557.262939,107.721886 557.262939,95.714050 
	C555.141785,95.714050 552.854065,95.714050 550.072937,95.714035 
z"/>
<path fill="#0C0C6D" opacity="1.000000" stroke="none" 
	d="
M527.930542,81.345985 
	C531.060059,81.346039 533.700378,81.346039 536.315186,81.346039 
	C536.315186,97.914055 536.315186,114.067619 536.315186,130.452393 
	C530.774536,130.452393 526.032837,130.452393 521.260742,130.452393 
	C521.260742,118.941536 521.260742,107.688583 521.260742,95.840271 
	C516.774231,95.840271 512.036865,95.840271 507.032898,95.840271 
	C507.032898,90.836571 507.032898,86.424484 507.032898,81.345932 
	C513.919067,81.345932 520.680176,81.345932 527.930542,81.345985 
z"/>
<path fill="#E4E4EF" opacity="1.000000" stroke="none" 
	d="
M312.023895,133.619171 
	C310.446655,134.624435 308.741028,135.056564 307.345154,135.964737 
	C302.784180,138.932159 296.025055,139.216583 292.355713,136.128250 
	C291.107117,135.077347 290.407776,133.373825 288.711365,130.865189 
	C297.035156,130.865189 304.073151,130.865189 311.564423,130.998871 
	C312.024231,131.843048 312.030792,132.553528 312.023895,133.619171 
z"/>
<path fill="#F4F4F8" opacity="1.000000" stroke="none" 
	d="
M83.930817,136.395767 
	C80.477135,136.395844 77.508331,136.395844 74.166344,136.395844 
	C74.166344,131.638153 74.166344,127.246132 74.166344,122.496658 
	C79.350708,122.496658 84.601570,122.240097 89.813713,122.579063 
	C93.873116,122.843063 96.118843,125.571487 95.993988,129.639313 
	C95.859543,134.019440 93.196594,136.176056 88.899696,136.362122 
	C87.407341,136.426727 85.910500,136.387497 83.930817,136.395767 
z"/>
<path fill="#F1F1F7" opacity="1.000000" stroke="none" 
	d="
M73.776489,103.873161 
	C73.776474,101.756172 73.776474,100.114899 73.776474,97.876915 
	C79.281380,97.876915 84.587036,97.406738 89.722626,98.135338 
	C91.488243,98.385826 94.111107,101.705612 94.005920,103.485123 
	C93.899353,105.288063 91.109749,108.030579 89.131348,108.397141 
	C84.954353,109.171043 80.513664,108.919456 76.242966,108.483330 
	C75.290009,108.386017 74.591927,105.792908 73.776489,103.873161 
z"/>
<path fill="#FCFEF9" opacity="1.000000" stroke="none" 
	d="
M381.393585,46.763367 
	C386.384491,49.829491 382.888702,54.045010 384.088318,58.143475 
	C373.858215,55.219082 364.292816,52.592766 354.803101,49.716721 
	C351.200378,48.624844 349.595825,40.480740 352.514496,38.144279 
	C353.350311,37.475201 355.315247,37.727261 356.565918,38.145161 
	C364.744843,40.878101 372.869812,43.772606 381.393585,46.763367 
z"/>
<path fill="#FCFEFA" opacity="1.000000" stroke="none" 
	d="
M392.009827,66.448845 
	C393.281067,64.980103 394.392883,63.512112 395.846771,62.981647 
	C403.147247,60.318039 410.508972,57.811409 417.912933,55.449440 
	C420.092316,54.754177 422.870636,52.207748 424.413177,56.519756 
	C425.623535,59.903179 424.303070,65.121078 421.487061,66.033340 
	C413.623566,68.580757 405.669769,70.850731 397.741028,73.194397 
	C396.184784,73.654404 394.581055,73.953659 392.008179,74.560997 
	C392.008179,71.651993 392.008179,69.266953 392.009827,66.448845 
z"/>
<path fill="#FDFEFA" opacity="1.000000" stroke="none" 
	d="
M358.895325,72.997437 
	C364.600250,74.948700 369.805969,77.291313 375.262512,78.521088 
	C380.387146,79.676056 382.199585,82.170456 381.252075,87.122810 
	C381.038635,88.238388 381.075623,89.401878 380.946747,91.279694 
	C376.105988,89.822906 371.610596,88.456436 367.106689,87.118454 
	C362.503906,85.751091 357.804932,84.642967 353.330414,82.941666 
	C351.636169,82.297485 349.562653,80.491692 349.242828,78.898125 
	C348.764221,76.513283 349.681824,73.848244 350.005554,71.302391 
	C352.838928,71.835892 355.672302,72.369400 358.895325,72.997437 
z"/>
<path fill="#FCFDF8" opacity="1.000000" stroke="none" 
	d="
M390.256470,68.763824 
	C390.266663,70.830894 390.266663,72.476036 390.266663,74.814301 
	C382.920715,72.871758 375.655060,70.946060 368.386597,69.031166 
	C366.300079,68.481483 364.199982,67.983177 362.115417,67.426567 
	C354.490417,65.390579 354.491882,65.385056 353.338287,56.938404 
	C354.843323,57.036572 356.286133,56.962372 357.654266,57.247009 
	C367.082153,59.208530 376.480927,61.311890 385.919708,63.218082 
	C388.892731,63.818493 390.880432,64.874733 390.256470,68.763824 
z"/>
<path fill="#FCFDF8" opacity="1.000000" stroke="none" 
	d="
M391.188721,89.195099 
	C388.411743,89.932495 386.034668,90.569435 383.586914,91.225319 
	C383.321198,90.415581 383.042114,89.969276 383.049225,89.527557 
	C383.214355,79.237534 381.633148,81.553268 391.404968,79.270615 
	C400.753113,77.086922 410.160339,75.156319 419.795563,73.059204 
	C419.795563,75.923302 419.795563,78.530464 419.795563,81.683426 
	C410.389587,84.154800 400.989105,86.624725 391.188721,89.195099 
z"/>
<path fill="#FCFDF9" opacity="1.000000" stroke="none" 
	d="
M400.448669,44.388420 
	C407.967163,42.775852 415.084259,41.288040 422.631409,39.710323 
	C422.349060,42.935619 422.111908,45.644527 421.855499,48.573208 
	C409.927917,51.712437 398.114227,54.821686 386.375061,57.911316 
	C386.045105,57.243835 385.794678,56.960445 385.772644,56.660297 
	C385.122467,47.800255 385.127594,47.807095 393.733337,45.965607 
	C395.844910,45.513763 397.942993,44.999004 400.448669,44.388420 
z"/>
<path fill="#EEEEF5" opacity="1.000000" stroke="none" 
	d="
M473.638031,99.854355 
	C478.018616,99.499092 478.026337,101.757256 477.191315,104.980835 
	C466.360901,104.980835 455.475067,104.980835 443.972351,104.980835 
	C443.859406,103.713623 443.721924,102.171127 443.515381,99.853546 
	C453.678741,99.853546 463.427948,99.853546 473.638031,99.854355 
z"/>
<path fill="#E8E8F1" opacity="1.000000" stroke="none" 
	d="
M291.013123,118.372169 
	C291.958557,113.515945 295.512115,112.760643 299.250977,112.770279 
	C302.900604,112.779678 305.853943,114.244736 307.513245,118.776978 
	C301.693451,118.776978 296.438141,118.776978 291.013123,118.372169 
z"/>
<path fill="#E9E9F2" opacity="1.000000" stroke="none" 
	d="
M634.796143,95.698624 
	C636.186462,96.336006 637.098267,96.971153 638.010071,97.606285 
	C637.116821,98.128143 636.228699,99.093071 635.329468,99.103661 
	C625.840942,99.215370 616.349731,99.230118 606.862122,99.087982 
	C605.948242,99.074295 605.052856,97.825203 604.148926,97.149582 
	C605.214783,96.665268 606.275452,95.774117 607.347229,95.760689 
	C616.336182,95.648064 625.327209,95.696480 634.796143,95.698624 
z"/>
</svg>